<svg width="172" height="168" viewBox="0 0 172 168" fill="none" xmlns="http://www.w3.org/2000/svg">
<g id="Icone">
<g id="Mask group">
<mask id="mask0_72_116" style="mask-type:luminance" maskUnits="userSpaceOnUse" x="13" y="12" width="145" height="143">
<g id="Group">
<path id="Vector" d="M85.8183 69.7724C89.0775 69.7724 92.3047 69.1417 95.3158 67.9162C98.3269 66.6906 101.063 64.8944 103.367 62.6299C105.672 60.3654 107.5 57.6771 108.747 54.7184C109.995 51.7598 110.637 48.5887 110.637 45.3862C110.637 42.1838 109.995 39.0127 108.747 36.054C107.5 33.0953 105.672 30.407 103.367 28.1426C101.063 25.8781 98.3269 24.0818 95.3158 22.8563C92.3047 21.6308 89.0775 21 85.8183 21C79.2361 21 72.9235 23.5693 68.2692 28.1426C63.6148 32.7159 61.0001 38.9186 61.0001 45.3862C61.0001 51.8539 63.6148 58.0566 68.2692 62.6299C72.9235 67.2032 79.2361 69.7724 85.8183 69.7724ZM22 142.234V146.415H149.637V142.234C149.637 126.627 149.637 118.824 146.545 112.859C143.826 107.616 139.487 103.352 134.15 100.68C128.08 97.6424 120.138 97.6424 104.255 97.6424H67.3819C51.4982 97.6424 43.5564 97.6424 37.4866 100.68C32.1498 103.352 27.8109 107.616 25.0916 112.859C22 118.824 22 126.627 22 142.234Z" fill="#C7784C" stroke="#C7784C" stroke-width="16.6667" stroke-linecap="round" stroke-linejoin="round"/>
</g>
</mask>
<g mask="url(#mask0_72_116)">
<path id="Vector_2" d="M0.727539 0.0975342H170.91V167.317H0.727539V0.0975342Z" fill="#3D6787"/>
</g>
</g>
</g>
</svg>
