<svg id="ePmyV5wsJjp1" xmlns="http://www.w3.org/2000/svg" xmlns:xlink="http://www.w3.org/1999/xlink" viewBox="0 0 2585 1732" shape-rendering="geometricPrecision" text-rendering="geometricPrecision"><g transform="translate(-459.900689-368.97207)" clip-rule="evenodd"><g transform="matrix(1.46004 0 0 1.46004-56.7457-152.398)" clip-rule="evenodd"><g transform="matrix(1.33364-.126682 0.097145 1.02269-79.0451-1657.03)" clip-rule="evenodd"><path d="M246.588,2299.21c36.68-187.63,136.311-257.21,309.974-243.62c182.839,14.3,536.448,31.57,664.338,235.61c29.09,46.41,77.7,162.89,134.49,202.83c206.66,145.35,32.98,845.28-262.49,764.7-147.785-40.31-135.356-128.2-377.951-112.81-491.137,31.16-626.809-87-573.497-510.64c17.904-142.27,79.356-204.19,105.136-336.07Z" transform="translate(3.785308 2.859472)" clip-rule="evenodd" fill="#ffe6e2" fill-rule="evenodd" stroke="#ffe6e2" stroke-width="12.64" stroke-linecap="round" stroke-linejoin="round" stroke-miterlimit="1.5"/></g><g transform="matrix(1.04238 0 0 2.87179-53.5353-4393.78)" clip-rule="evenodd"><path d="M1623.09,1843.58c0-12.28-27.45-22.24-61.27-22.24h-649.987c-33.818,0-61.274,9.96-61.274,22.24v44.48c0,12.27,27.456,22.24,61.274,22.24h649.987c33.82,0,61.27-9.97,61.27-22.24v-44.48Z" clip-rule="evenodd" fill="#fff" fill-rule="evenodd" stroke-linecap="round" stroke-linejoin="round" stroke-miterlimit="1.5"/></g><g transform="matrix(1.42706 0 0 1.93536-599.741-2820.41)" clip-rule="evenodd"><ellipse rx="409.457" ry="40.364" transform="translate(1286.18 2132.11)" clip-rule="evenodd" fill="#3d6787" fill-rule="evenodd" stroke-linecap="round" stroke-linejoin="round" stroke-miterlimit="1.5"/></g><g transform="translate(-27.2264-840.902)" clip-rule="evenodd"><path d="M1127.9,1933.11l-.2,48.12c.15,22.3-2.34,49.68-35.88,55.31-53.65,9.02-45.24,42.62-31.71,53.88l410.71,1.33c22.98-8.95,17.28-46.45-14.56-51.33-33.55-5.14-41.11-16.09-40.67-64.44l.21-42.87h-287.9Z" clip-rule="evenodd" fill="#fff" fill-rule="evenodd" stroke-linecap="round" stroke-linejoin="round" stroke-miterlimit="1.5"/></g><g transform="translate(0-840.902)" clip-rule="evenodd"><path d="M1023.53,2074.95c0,0,67.54-28.82,100.78-20.46c41.19,10.36,94.89-9.16,140.64-7.3c44.99,1.84,101.6,19.28,133.82,18.49c21.81-.53,58.45,9.21,58.45,9.21-1.84,10.5-8.63,14.63-13.32,16.86l-410.99-1.31c-4.94-4.26-7.49-8.69-9.38-15.49Z" clip-rule="evenodd" fill="#edf6f9" fill-rule="evenodd" stroke-linecap="round" stroke-linejoin="round" stroke-miterlimit="1.5"/></g><g transform="matrix(.984095 0 0 0.956215 26.5146-775.422)" clip-rule="evenodd"><path d="M1622.21,1392.51c0-12.62-9.95-22.86-22.21-22.86h-739.902c-12.256,0-22.206,10.24-22.206,22.86v436.95c0,12.61,9.95,22.85,22.206,22.85h739.902c12.26,0,22.21-10.24,22.21-22.85v-436.95Z" clip-rule="evenodd" fill="#d8ecfc" fill-rule="evenodd" stroke="#2b3643" stroke-width="29.41" stroke-linecap="round" stroke-linejoin="round" stroke-miterlimit="1.5"/></g><g transform="matrix(.869509 0 0 1.31232 53.4927-1368.2)" clip-rule="evenodd"><path d="M1457.57,1532.69c0-13.43-16.46-24.34-36.73-24.34h-372.79c-20.27,0-36.73,10.91-36.73,24.34v215.93c0,13.43,16.46,24.34,36.73,24.34h372.79c20.27,0,36.73-10.91,36.73-24.34v-215.93Z" clip-rule="evenodd" fill="#a1cdf1" fill-rule="evenodd" stroke-linecap="round" stroke-linejoin="round" stroke-miterlimit="1.5"/></g><g transform="matrix(.869509 0 0 1.31232 44.117-1376.25)" clip-rule="evenodd"><path d="M1457.57,1532.69c0-13.43-16.46-24.34-36.73-24.34h-372.79c-20.27,0-36.73,10.91-36.73,24.34v215.93c0,13.43,16.46,24.34,36.73,24.34h372.79c20.27,0,36.73-10.91,36.73-24.34v-215.93Z" clip-rule="evenodd" fill="#3d6787" fill-rule="evenodd" stroke-linecap="round" stroke-linejoin="round" stroke-miterlimit="1.5"/></g><g transform="matrix(.233735 0 0 0.158423 715.84 327.847)" clip-rule="evenodd"><path d="M1457.57,1606.98c0-54.43-29.95-98.63-66.84-98.63h-312.57c-36.89,0-66.84,44.2-66.84,98.63v67.35c0,54.44,29.95,98.63,66.84,98.63h312.57c36.89,0,66.84-44.19,66.84-98.63v-67.35Z" clip-rule="evenodd" fill="#ffb5a7" fill-rule="evenodd" stroke-linecap="round" stroke-linejoin="round" stroke-miterlimit="1.5"/></g><g transform="matrix(.233735 0 0 0.158423 776.182 336.738)" clip-rule="evenodd"><path d="M1457.57,1606.98c0-54.43-29.95-98.63-66.84-98.63h-312.57c-36.89,0-66.84,44.2-66.84,98.63v67.35c0,54.44,29.95,98.63,66.84,98.63h312.57c36.89,0,66.84-44.19,66.84-98.63v-67.35Z" clip-rule="evenodd" fill="#fcd5ce" fill-rule="evenodd" stroke-linecap="round" stroke-linejoin="round" stroke-miterlimit="1.5"/></g><g transform="matrix(.233735 0 0 0.158423 841.878 336.738)" clip-rule="evenodd"><path d="M1457.57,1606.98c0-54.43-29.95-98.63-66.84-98.63h-312.57c-36.89,0-66.84,44.2-66.84,98.63v67.35c0,54.44,29.95,98.63,66.84,98.63h312.57c36.89,0,66.84-44.19,66.84-98.63v-67.35Z" clip-rule="evenodd" fill="#ffe6e2" fill-rule="evenodd" stroke-linecap="round" stroke-linejoin="round" stroke-miterlimit="1.5"/></g><g transform="matrix(.869509 0 0 1.31232 38.1101-1382.79)" clip-rule="evenodd"><path d="M1457.57,1532.69c0-13.43-16.46-24.34-36.73-24.34h-372.79c-20.27,0-36.73,10.91-36.73,24.34v215.93c0,13.43,16.46,24.34,36.73,24.34h372.79c20.27,0,36.73-10.91,36.73-24.34v-215.93Z" clip-rule="evenodd" fill="#fff" fill-rule="evenodd" stroke-linecap="round" stroke-linejoin="round" stroke-miterlimit="1.5"/></g><g transform="matrix(.727864 0 0 0.066467 215.936 517.359)" clip-rule="evenodd"><path d="M1457.57,1606.98c0-54.43-4.04-98.63-9.01-98.63h-428.23c-4.98,0-9.01,44.2-9.01,98.63v67.35c0,54.44,4.03,98.63,9.01,98.63h428.23c4.97,0,9.01-44.19,9.01-98.63v-67.35Z" clip-rule="evenodd" fill="#a1cdf1" fill-rule="evenodd" stroke-linecap="round" stroke-linejoin="round" stroke-miterlimit="1.5"/></g><g transform="matrix(.727864 0 0 0.124837 215.936 468.522)" clip-rule="evenodd"><path d="M1457.57,1606.98c0-54.43-7.58-98.63-16.92-98.63h-412.42c-9.33,0-16.91,44.2-16.91,98.63v67.35c0,54.44,7.58,98.63,16.91,98.63h412.42c9.34,0,16.92-44.19,16.92-98.63v-67.35Z" clip-rule="evenodd" fill="#a1cdf1" fill-rule="evenodd" stroke-linecap="round" stroke-linejoin="round" stroke-miterlimit="1.5"/></g><g transform="matrix(.333839 0 0 0.124837 1050.91 430.741)" clip-rule="evenodd"><path d="M1457.57,1606.98c0-54.43-16.53-98.63-36.88-98.63h-372.49c-20.36,0-36.88,44.2-36.88,98.63v67.35c0,54.44,16.52,98.63,36.88,98.63h372.49c20.35,0,36.88-44.19,36.88-98.63v-67.35Z" clip-rule="evenodd" fill="#a1cdf1" fill-rule="evenodd" stroke-linecap="round" stroke-linejoin="round" stroke-miterlimit="1.5"/></g><g transform="matrix(.727864 0 0 0.213919 215.936 542.304)" clip-rule="evenodd"><path d="M1457.57,1606.98c0-54.43-12.99-98.63-28.99-98.63h-388.28c-15.99,0-28.98,44.2-28.98,98.63v67.35c0,54.44,12.99,98.63,28.98,98.63h388.28c16,0,28.99-44.19,28.99-98.63v-67.35Z" clip-rule="evenodd" fill="#a1cdf1" fill-rule="evenodd" stroke-linecap="round" stroke-linejoin="round" stroke-miterlimit="1.5"/></g><g transform="matrix(.727864 0 0 0.035756 215.936 662.292)" clip-rule="evenodd"><path d="M1457.57,1606.98c0-54.43-2.17-98.63-4.85-98.63h-436.56c-2.67,0-4.84,44.2-4.84,98.63v67.35c0,54.44,2.17,98.63,4.84,98.63h436.56c2.68,0,4.85-44.19,4.85-98.63v-67.35Z" clip-rule="evenodd" fill="#a1cdf1" fill-rule="evenodd" stroke-linecap="round" stroke-linejoin="round" stroke-miterlimit="1.5"/></g><g transform="matrix(.727864 0 0 0.035756 215.936 688.905)" clip-rule="evenodd"><path d="M1457.57,1606.98c0-54.43-2.17-98.63-4.85-98.63h-436.56c-2.67,0-4.84,44.2-4.84,98.63v67.35c0,54.44,2.17,98.63,4.84,98.63h436.56c2.68,0,4.85-44.19,4.85-98.63v-67.35Z" clip-rule="evenodd" fill="#a1cdf1" fill-rule="evenodd" stroke-linecap="round" stroke-linejoin="round" stroke-miterlimit="1.5"/></g><g transform="matrix(.727864 0 0 0.018514 215.936 773.459)" clip-rule="evenodd"><path d="M1457.57,1606.98c0-54.43-1.13-98.63-2.51-98.63h-441.23c-1.39,0-2.51,44.2-2.51,98.63v67.35c0,54.44,1.12,98.63,2.51,98.63h441.23c1.38,0,2.51-44.19,2.51-98.63v-67.35Z" clip-rule="evenodd" fill="#a1cdf1" fill-rule="evenodd" stroke-linecap="round" stroke-linejoin="round" stroke-miterlimit="1.5"/></g><g transform="matrix(.727864 0 0 0.018514 215.936 790.187)" clip-rule="evenodd"><path d="M1457.57,1606.98c0-54.43-1.13-98.63-2.51-98.63h-441.23c-1.39,0-2.51,44.2-2.51,98.63v67.35c0,54.44,1.12,98.63,2.51,98.63h441.23c1.38,0,2.51-44.19,2.51-98.63v-67.35Z" clip-rule="evenodd" fill="#a1cdf1" fill-rule="evenodd" stroke-linecap="round" stroke-linejoin="round" stroke-miterlimit="1.5"/></g><g transform="matrix(.727864 0 0 0.018514 215.936 808.436)" clip-rule="evenodd"><path d="M1457.57,1606.98c0-54.43-1.13-98.63-2.51-98.63h-441.23c-1.39,0-2.51,44.2-2.51,98.63v67.35c0,54.44,1.12,98.63,2.51,98.63h441.23c1.38,0,2.51-44.19,2.51-98.63v-67.35Z" clip-rule="evenodd" fill="#a1cdf1" fill-rule="evenodd" stroke-linecap="round" stroke-linejoin="round" stroke-miterlimit="1.5"/></g><g transform="matrix(.390821 0 0 1.31232 998.034-1368.2)" clip-rule="evenodd"><path d="M1457.57,1520.58c0-6.75-18.39-12.23-41.05-12.23h-364.16c-22.65,0-41.04,5.48-41.04,12.23v240.15c0,6.75,18.39,12.23,41.04,12.23h364.16c22.66,0,41.05-5.48,41.05-12.23v-240.15Z" clip-rule="evenodd" fill="#a1cdf1" fill-rule="evenodd" stroke-linecap="round" stroke-linejoin="round" stroke-miterlimit="1.5"/></g><g transform="matrix(.390821 0 0 1.31232 987.003-1376.25)" clip-rule="evenodd"><path d="M1457.57,1520.58c0-6.75-18.39-12.23-41.05-12.23h-364.16c-22.65,0-41.04,5.48-41.04,12.23v240.15c0,6.75,18.39,12.23,41.04,12.23h364.16c22.66,0,41.05-5.48,41.05-12.23v-240.15Z" clip-rule="evenodd" fill="#3d6787" fill-rule="evenodd" stroke-linecap="round" stroke-linejoin="round" stroke-miterlimit="1.5"/></g><g transform="matrix(.390821 0 0 1.31232 980.569-1382.79)" clip-rule="evenodd"><path d="M1457.57,1520.58c0-6.75-18.39-12.23-41.05-12.23h-364.16c-22.65,0-41.04,5.48-41.04,12.23v240.15c0,6.75,18.39,12.23,41.04,12.23h364.16c22.66,0,41.05-5.48,41.05-12.23v-240.15Z" clip-rule="evenodd" fill="#fff" fill-rule="evenodd" stroke-linecap="round" stroke-linejoin="round" stroke-miterlimit="1.5"/></g><g transform="matrix(.333839 0 0 0.124837 1050.91 440.1)" clip-rule="evenodd"><path d="M1457.57,1606.98c0-54.43-16.53-98.63-36.88-98.63h-372.49c-20.36,0-36.88,44.2-36.88,98.63v67.35c0,54.44,16.52,98.63,36.88,98.63h372.49c20.35,0,36.88-44.19,36.88-98.63v-67.35Z" clip-rule="evenodd" fill="#a1cdf1" fill-rule="evenodd" stroke-linecap="round" stroke-linejoin="round" stroke-miterlimit="1.5"/></g><g transform="matrix(.11595 0 0 0.03656 1281.78 584.933)" clip-rule="evenodd"><path d="M1457.57,1606.98c0-54.43-13.94-98.63-31.1-98.63h-384.06c-17.16,0-31.09,44.2-31.09,98.63v67.35c0,54.44,13.93,98.63,31.09,98.63h384.06c17.16,0,31.1-44.19,31.1-98.63v-67.35Z" clip-rule="evenodd" fill="#3d6787" fill-rule="evenodd" stroke-linecap="round" stroke-linejoin="round" stroke-miterlimit="1.5"/></g><g transform="matrix(.333839 0 0 0.124837 1050.91 490.284)" clip-rule="evenodd"><path d="M1457.57,1606.98c0-54.43-16.53-98.63-36.88-98.63h-372.49c-20.36,0-36.88,44.2-36.88,98.63v67.35c0,54.44,16.52,98.63,36.88,98.63h372.49c20.35,0,36.88-44.19,36.88-98.63v-67.35Z" clip-rule="evenodd" fill="#a1cdf1" fill-rule="evenodd" stroke-linecap="round" stroke-linejoin="round" stroke-miterlimit="1.5"/></g><g transform="matrix(.333839 0 0 0.124837 1050.91 540.468)" clip-rule="evenodd"><path d="M1457.57,1606.98c0-54.43-16.53-98.63-36.88-98.63h-372.49c-20.36,0-36.88,44.2-36.88,98.63v67.35c0,54.44,16.52,98.63,36.88,98.63h372.49c20.35,0,36.88-44.19,36.88-98.63v-67.35Z" clip-rule="evenodd" fill="#a1cdf1" fill-rule="evenodd" stroke-linecap="round" stroke-linejoin="round" stroke-miterlimit="1.5"/></g><g transform="matrix(.333839 0 0 0.124837 1050.91 591.336)" clip-rule="evenodd"><path d="M1457.57,1606.98c0-54.43-16.53-98.63-36.88-98.63h-372.49c-20.36,0-36.88,44.2-36.88,98.63v67.35c0,54.44,16.52,98.63,36.88,98.63h372.49c20.35,0,36.88-44.19,36.88-98.63v-67.35Z" clip-rule="evenodd" fill="#a1cdf1" fill-rule="evenodd" stroke-linecap="round" stroke-linejoin="round" stroke-miterlimit="1.5"/></g><g transform="matrix(.333839 0 0 0.124837 1050.91 641.52)" clip-rule="evenodd"><path d="M1457.57,1606.98c0-54.43-16.53-98.63-36.88-98.63h-372.49c-20.36,0-36.88,44.2-36.88,98.63v67.35c0,54.44,16.52,98.63,36.88,98.63h372.49c20.35,0,36.88-44.19,36.88-98.63v-67.35Z" clip-rule="evenodd" fill="#a1cdf1" fill-rule="evenodd" stroke-linecap="round" stroke-linejoin="round" stroke-miterlimit="1.5"/></g><g transform="matrix(.333839 0 0 0.124837 1050.91 691.704)" clip-rule="evenodd"><path d="M1457.57,1606.98c0-54.43-16.53-98.63-36.88-98.63h-372.49c-20.36,0-36.88,44.2-36.88,98.63v67.35c0,54.44,16.52,98.63,36.88,98.63h372.49c20.35,0,36.88-44.19,36.88-98.63v-67.35Z" clip-rule="evenodd" fill="#a1cdf1" fill-rule="evenodd" stroke-linecap="round" stroke-linejoin="round" stroke-miterlimit="1.5"/></g><g transform="matrix(.11595 0 0 0.03656 1281.78 635.117)" clip-rule="evenodd"><path d="M1457.57,1606.98c0-54.43-13.94-98.63-31.1-98.63h-384.06c-17.16,0-31.09,44.2-31.09,98.63v67.35c0,54.44,13.93,98.63,31.09,98.63h384.06c17.16,0,31.1-44.19,31.1-98.63v-67.35Z" clip-rule="evenodd" fill="#3d6787" fill-rule="evenodd" stroke-linecap="round" stroke-linejoin="round" stroke-miterlimit="1.5"/></g><g transform="matrix(.11595 0 0 0.03656 1281.78 685.3)" clip-rule="evenodd"><path d="M1457.57,1606.98c0-54.43-13.94-98.63-31.1-98.63h-384.06c-17.16,0-31.09,44.2-31.09,98.63v67.35c0,54.44,13.93,98.63,31.09,98.63h384.06c17.16,0,31.1-44.19,31.1-98.63v-67.35Z" clip-rule="evenodd" fill="#3d6787" fill-rule="evenodd" stroke-linecap="round" stroke-linejoin="round" stroke-miterlimit="1.5"/></g><g transform="matrix(.11595 0 0 0.03656 1281.78 736.169)" clip-rule="evenodd"><path d="M1457.57,1606.98c0-54.43-13.94-98.63-31.1-98.63h-384.06c-17.16,0-31.09,44.2-31.09,98.63v67.35c0,54.44,13.93,98.63,31.09,98.63h384.06c17.16,0,31.1-44.19,31.1-98.63v-67.35Z" clip-rule="evenodd" fill="#3d6787" fill-rule="evenodd" stroke-linecap="round" stroke-linejoin="round" stroke-miterlimit="1.5"/></g><g transform="matrix(.11595 0 0 0.03656 1281.78 786.352)" clip-rule="evenodd"><path d="M1457.57,1606.98c0-54.43-13.94-98.63-31.1-98.63h-384.06c-17.16,0-31.09,44.2-31.09,98.63v67.35c0,54.44,13.93,98.63,31.09,98.63h384.06c17.16,0,31.1-44.19,31.1-98.63v-67.35Z" clip-rule="evenodd" fill="#3d6787" fill-rule="evenodd" stroke-linecap="round" stroke-linejoin="round" stroke-miterlimit="1.5"/></g><g transform="matrix(.11595 0 0 0.03656 1281.78 836.536)" clip-rule="evenodd"><path d="M1457.57,1606.98c0-54.43-13.94-98.63-31.1-98.63h-384.06c-17.16,0-31.09,44.2-31.09,98.63v67.35c0,54.44,13.93,98.63,31.09,98.63h384.06c17.16,0,31.1-44.19,31.1-98.63v-67.35Z" clip-rule="evenodd" fill="#3d6787" fill-rule="evenodd" stroke-linecap="round" stroke-linejoin="round" stroke-miterlimit="1.5"/></g><g transform="matrix(.543338 0 0 0.544211 617.012-59.1995)" clip-rule="evenodd"><path id="ePmyV5wsJjp77" d="M1606.61,1419.49c0-52.46-42.66-95.05-95.2-95.05h-729.06c-52.54,0-95.196,42.59-95.196,95.05v190.08c0,52.46,42.656,95.05,95.196,95.05h729.06c52.54,0,95.2-42.59,95.2-95.05v-190.08Z" opacity="0" clip-rule="evenodd" fill="#3d6787" fill-rule="evenodd" stroke-linecap="round" stroke-linejoin="round" stroke-miterlimit="1.5"/></g><g transform="matrix(1.84077 0 0 1.84077-813.507-2204)" clip-rule="evenodd"><g transform="matrix(.738923 0 0 0.738923-244.138 746.552)" clip-rule="evenodd"><path id="ePmyV5wsJjp80" d="M1715.14,1153.3l-25.16,42.54h71.71l.08,14.79-.46-81.02" opacity="0" clip-rule="evenodd" fill="none" fill-rule="evenodd" stroke="#ffb5a7" stroke-width="18.88" stroke-linecap="round" stroke-linejoin="round" stroke-miterlimit="1.5"/></g><g transform="matrix(.738923 0 0 0.738923-75.1273 746.552)" clip-rule="evenodd"><path id="ePmyV5wsJjp82" d="M1715.14,1153.3l-25.16,42.54h71.71l.08,14.79-.46-81.02" opacity="0" clip-rule="evenodd" fill="none" fill-rule="evenodd" stroke="#ffb5a7" stroke-width="18.88" stroke-linecap="round" stroke-linejoin="round" stroke-miterlimit="1.5"/></g><g transform="matrix(.980658 0 0 1.17404 17.4945-285.614)" clip-rule="evenodd"><path id="ePmyV5wsJjp84" d="M1151.26,1602.31c0-6.73-6.55-12.19-14.6-12.19h-29.2c-8.06,0-14.6,5.46-14.6,12.19v26.61c0,6.73,6.54,12.19,14.6,12.19h29.2c8.05,0,14.6-5.46,14.6-12.19v-26.61Z" opacity="0" clip-rule="evenodd" fill="none" fill-rule="evenodd" stroke="#ffb5a7" stroke-width="12.9" stroke-linecap="round" stroke-linejoin="round" stroke-miterlimit="1.5"/></g></g><g transform="matrix(1.57553 0 0 1.88813 451.828-2645.5)" clip-rule="evenodd"><g transform="matrix(1 0 0 1.14267 0-293.507)" clip-rule="evenodd"><path d="M166.549,2067.52c8.212-4.7,16.968-7.29,26.072-10.2h142.585l-24.317,12.97-144.34-2.77Z" clip-rule="evenodd" fill="#edf6f9" fill-rule="evenodd" stroke-linecap="round" stroke-linejoin="round" stroke-miterlimit="1.5"/></g><g transform="translate(2.92342-44.4548)" clip-rule="evenodd"><g clip-rule="evenodd"><g transform="matrix(1.19265 0 0 0.932051-30.3603 146.023)" clip-rule="evenodd"><path d="M283.676,2111.49c-8.234,12.38-11.232,26.69-3.283,35.88L168.697,2149c-13.463.32-16.954-28.5-6.045-38.17l121.024.66Z" clip-rule="evenodd" fill="#d8ecfc" fill-rule="evenodd" stroke-linecap="round" stroke-linejoin="round" stroke-miterlimit="1.5"/></g><g transform="translate(-2.92342 44.4548)" clip-rule="evenodd"><path d="M312.151,2101.15l-4.928,1.87c-7.335-4.14-8.742-8.27-6.553-14.35c1.806,5.55,4.916,10.21,11.481,12.48" clip-rule="evenodd" fill="#d8ecfc" fill-rule="evenodd" stroke-linecap="round" stroke-linejoin="round" stroke-miterlimit="1.5"/></g></g><g transform="matrix(.992705 0 0 1 2.19381 0)" clip-rule="evenodd"><g clip-rule="evenodd"><g transform="matrix(1.21013-.019883 0.013054 0.794481-97.1585 447.421)" clip-rule="evenodd"><path d="M272.464,2148.57c-5.561-7.89-8.997-30.94,2.752-44l15.361.4c-8.477,7.17-11.519,32.85-.944,44.03l-17.169-.43Z" clip-rule="evenodd" fill="#3d6787" fill-rule="evenodd" stroke-linecap="round" stroke-linejoin="round" stroke-miterlimit="1.5"/></g><g transform="translate(-2.92342 44.4548)" clip-rule="evenodd"><path d="M286.965,2057.04l16.691.28-18.802,12.24-18.592-.01l20.703-12.51Z" clip-rule="evenodd" fill="#3d6787" fill-rule="evenodd" stroke-linecap="round" stroke-linejoin="round" stroke-miterlimit="1.5"/></g></g></g><g transform="matrix(.992705 0 0 1-37.7802 0)" clip-rule="evenodd"><g clip-rule="evenodd"><g transform="matrix(1.21013-.019883 0.013054 0.794481-97.1585 447.421)" clip-rule="evenodd"><path d="M272.464,2148.57c-5.561-7.89-8.997-30.94,2.752-44l15.361.4c-8.477,7.17-11.519,32.85-.944,44.03l-17.169-.43Z" clip-rule="evenodd" fill="#3d6787" fill-rule="evenodd" stroke-linecap="round" stroke-linejoin="round" stroke-miterlimit="1.5"/></g><g transform="translate(-2.92342 44.4548)" clip-rule="evenodd"><path d="M286.965,2057.04l16.691.28-18.802,12.24-18.592-.01l20.703-12.51Z" clip-rule="evenodd" fill="#3d6787" fill-rule="evenodd" stroke-linecap="round" stroke-linejoin="round" stroke-miterlimit="1.5"/></g></g></g><g transform="matrix(.992705 0 0 1-80.9103 0)" clip-rule="evenodd"><g clip-rule="evenodd"><g transform="matrix(1.21013-.019883 0.013054 0.794481-97.1585 447.421)" clip-rule="evenodd"><path d="M272.464,2148.57c-5.561-7.89-8.997-30.94,2.752-44l15.361.4c-8.477,7.17-11.519,32.85-.944,44.03l-17.169-.43Z" clip-rule="evenodd" fill="#3d6787" fill-rule="evenodd" stroke-linecap="round" stroke-linejoin="round" stroke-miterlimit="1.5"/></g><g transform="translate(-2.92342 44.4548)" clip-rule="evenodd"><path d="M286.965,2057.04l16.691.28-18.802,12.24-18.592-.01l20.703-12.51Z" clip-rule="evenodd" fill="#3d6787" fill-rule="evenodd" stroke-linecap="round" stroke-linejoin="round" stroke-miterlimit="1.5"/></g></g></g></g><path d="M330.37,2065.51c2.138-1.1,5.586-1.97,6.399-3.34.813-1.36-.143-4.54-1.52-4.85-1.365-.3-17.557,9.96-25.83,12.78-16.281,5.56-13.178,35.21-.769,32.78c9.329-1.82,29.196-14.49,28.119-13.26c2.478-1.69,2.77-8.1.249-8.92-2.827-.92-6.067-.58-6.067-.58l-23.529,13.85-.491-16.45c0,0,18.466-9.46,23.439-12.01Z" clip-rule="evenodd" fill="#a1cdf1" fill-rule="evenodd" stroke-linecap="round" stroke-linejoin="round" stroke-miterlimit="1.5"/><g transform="matrix(.772205-.016032 0.015018 0.723334 46.7516 551.308)" clip-rule="evenodd"><path d="M326.479,2100.6c-1.924,8.45-2.815,16.68,2.177,23.67l-25.299,14.84c-17.384,10.41-16.118-20.74-5.312-25.26l28.434-13.25Z" clip-rule="evenodd" fill="#fff" fill-rule="evenodd" stroke-linecap="round" stroke-linejoin="round" stroke-miterlimit="1.5"/></g><g transform="matrix(.772205-.016032 0.015018 0.723334 46.7516 551.308)" clip-rule="evenodd"><path d="M327.177,2125.01l-23.82,14.1c-17.384,10.41-16.118-20.74-5.312-25.26l26.798-13.29" clip-rule="evenodd" fill="none" fill-rule="evenodd" stroke="#edf6f9" stroke-width="1.46" stroke-linecap="round" stroke-linejoin="round" stroke-miterlimit="1.5"/></g></g><g transform="matrix(1.53388 0 0 1.81494 465.939-2569.53)" clip-rule="evenodd"><g transform="matrix(1 0 0 1.14267 0-293.507)" clip-rule="evenodd"><path d="M166.549,2067.52c8.212-4.7,16.968-7.29,26.072-10.2h142.585l-24.317,12.97-144.34-2.77Z" clip-rule="evenodd" fill="#ffe6e2" fill-rule="evenodd" stroke-linecap="round" stroke-linejoin="round" stroke-miterlimit="1.5"/></g><g transform="translate(2.92342-44.4548)" clip-rule="evenodd"><g clip-rule="evenodd"><g transform="matrix(1.19265 0 0 0.932051-30.3603 146.023)" clip-rule="evenodd"><path d="M283.676,2111.49c-8.234,12.38-10.078,26.69-2.129,35.88L168.697,2149c-13.463.32-16.954-28.5-6.045-38.17l121.024.66Z" clip-rule="evenodd" fill="#fcd5ce" fill-rule="evenodd" stroke-linecap="round" stroke-linejoin="round" stroke-miterlimit="1.5"/></g><g transform="translate(-2.92342 44.4548)" clip-rule="evenodd"><path d="M312.151,2101.15l-5.823,1.87c-7.336-4.14-7.847-8.27-5.658-14.35c1.806,5.55,4.916,10.21,11.481,12.48" clip-rule="evenodd" fill="#fcd5ce" fill-rule="evenodd" stroke-linecap="round" stroke-linejoin="round" stroke-miterlimit="1.5"/></g></g><g clip-rule="evenodd"><g transform="matrix(1.21013-.019883 0.012589 0.766221-96.1811 506.905)" clip-rule="evenodd"><path d="M284.678,2149c-9.009-9.07-10.817-31.09.932-44.15l4.967.12c-8.477,7.17-11.519,32.85-.944,44.03h-4.955Z" clip-rule="evenodd" fill="#ffb5a7" fill-rule="evenodd" stroke-linecap="round" stroke-linejoin="round" stroke-miterlimit="1.5"/></g><g transform="translate(-2.92342 44.4548)" clip-rule="evenodd"><path d="M298.422,2057.32h5.234l-18.802,12.24h-5.997l19.565-12.24Z" clip-rule="evenodd" fill="#ffb5a7" fill-rule="evenodd" stroke-linecap="round" stroke-linejoin="round" stroke-miterlimit="1.5"/></g></g></g><path d="M330.37,2065.51c2.138-1.1,5.586-1.97,6.399-3.34.813-1.36-.143-4.54-1.52-4.85-1.365-.3-17.557,9.96-25.83,12.78-16.281,5.56-13.178,35.21-.769,32.78c9.329-1.82,29.196-14.49,28.119-13.26c2.478-1.69,2.77-8.1.249-8.92-2.827-.92-6.067-.58-6.067-.58l-23.529,13.85-.491-16.45c0,0,18.466-9.46,23.439-12.01Z" clip-rule="evenodd" fill="#ffb5a7" fill-rule="evenodd" stroke-linecap="round" stroke-linejoin="round" stroke-miterlimit="1.5"/><g transform="matrix(.772205-.016032 0.015018 0.723334 46.7516 551.308)" clip-rule="evenodd"><path d="M326.479,2100.6c-1.924,8.45-2.815,16.68,2.177,23.67l-25.299,14.84c-17.384,10.41-16.118-20.74-5.312-25.26l28.434-13.25Z" clip-rule="evenodd" fill="#fff" fill-rule="evenodd" stroke-linecap="round" stroke-linejoin="round" stroke-miterlimit="1.5"/></g><g transform="matrix(.772205-.016032 0.015018 0.723334 46.7516 551.308)" clip-rule="evenodd"><path d="M327.164,2124.86l-23.807,14.25c-17.384,10.41-16.118-20.74-5.312-25.26l26.736-13.29" clip-rule="evenodd" fill="none" fill-rule="evenodd" stroke="#edf6f9" stroke-width="1.44" stroke-linecap="round" stroke-linejoin="round" stroke-miterlimit="1.5"/></g></g><g transform="matrix(1.50406 0 0 1.50406 476.042-1981.02)" clip-rule="evenodd"><g transform="matrix(1 0 0 1.14267 0-293.507)" clip-rule="evenodd"><path d="M166.549,2067.52c8.212-4.7,16.968-7.29,26.072-10.2h142.585l-24.317,12.97-144.34-2.77Z" clip-rule="evenodd" fill="#3d6787" fill-rule="evenodd" stroke-linecap="round" stroke-linejoin="round" stroke-miterlimit="1.5"/></g><g transform="translate(2.92342-44.4548)" clip-rule="evenodd"><g clip-rule="evenodd"><g transform="matrix(1.19265 0 0 0.932051-30.3603 146.023)" clip-rule="evenodd"><path d="M283.676,2111.49c-8.234,12.38-10.408,26.69-2.459,35.88L168.697,2149c-13.463.32-16.954-28.5-6.045-38.17l121.024.66Z" clip-rule="evenodd" fill="#2d3642" fill-rule="evenodd" stroke-linecap="round" stroke-linejoin="round" stroke-miterlimit="1.5"/></g><g transform="translate(-2.92342 44.4548)" clip-rule="evenodd"><path d="M312.151,2101.15l-4.753,1.87c-7.335-4.14-8.917-8.27-6.728-14.35c1.806,5.55,4.916,10.21,11.481,12.48" clip-rule="evenodd" fill="#2b3643" fill-rule="evenodd" stroke-linecap="round" stroke-linejoin="round" stroke-miterlimit="1.5"/></g></g><g clip-rule="evenodd"><g transform="matrix(1.21013-.019883 0.012846 0.78186-158.622 473.889)" clip-rule="evenodd"><path d="M284.678,2149c-9.009-9.07-10.817-31.09.932-44.15l4.967.12c-8.477,7.17-11.519,32.85-.944,44.03h-4.955Z" clip-rule="evenodd" fill="#121c28" fill-rule="evenodd" stroke-linecap="round" stroke-linejoin="round" stroke-miterlimit="1.5"/></g><g transform="translate(-64.8233 44.357)" clip-rule="evenodd"><path d="M298.422,2057.32h5.234l-18.802,12.24h-5.997l19.565-12.24Z" clip-rule="evenodd" fill="#121c28" fill-rule="evenodd" stroke-linecap="round" stroke-linejoin="round" stroke-miterlimit="1.5"/></g></g><g transform="translate(-83.9813-.097868)" clip-rule="evenodd"><g transform="matrix(1.21013-.019883 0.012959 0.788708-96.9588 459.573)" clip-rule="evenodd"><path d="M284.678,2149c-9.009-9.07-10.817-31.09.932-44.15l4.967.12c-8.477,7.17-11.519,32.85-.944,44.03h-4.955Z" clip-rule="evenodd" fill="#121c28" fill-rule="evenodd" stroke-linecap="round" stroke-linejoin="round" stroke-miterlimit="1.5"/></g><g transform="translate(-2.92342 44.4548)" clip-rule="evenodd"><path d="M298.422,2057.32h5.234l-18.802,12.24h-5.997l19.565-12.24Z" clip-rule="evenodd" fill="#121c28" fill-rule="evenodd" stroke-linecap="round" stroke-linejoin="round" stroke-miterlimit="1.5"/></g></g></g><path d="M330.37,2065.51c2.138-1.1,5.586-1.97,6.399-3.34.813-1.36-.143-4.54-1.52-4.85-1.365-.3-17.557,9.96-25.83,12.78-16.281,5.56-13.178,35.21-.769,32.78c9.329-1.82,29.196-14.49,28.119-13.26c2.478-1.69,2.77-8.1.249-8.92-2.827-.92-6.067-.58-6.067-.58l-23.529,13.85-.491-16.45c0,0,18.466-9.46,23.439-12.01Z" clip-rule="evenodd" fill="#121c28" fill-rule="evenodd" stroke-linecap="round" stroke-linejoin="round" stroke-miterlimit="1.5"/><g transform="matrix(.772205-.016032 0.015018 0.723334 46.7516 551.308)" clip-rule="evenodd"><path d="M326.479,2100.6c-1.924,8.45-2.815,16.68,2.177,23.67l-25.299,14.84c-17.384,10.41-16.118-20.74-5.312-25.26l28.434-13.25Z" clip-rule="evenodd" fill="#fff" fill-rule="evenodd" stroke-linecap="round" stroke-linejoin="round" stroke-miterlimit="1.5"/></g><g transform="matrix(.772205-.016032 0.015018 0.723334 46.7516 551.308)" clip-rule="evenodd"><path d="M327.598,2124.84l-24.241,14.27c-17.384,10.41-16.118-20.74-5.312-25.26l27.231-13.28" clip-rule="evenodd" fill="none" fill-rule="evenodd" stroke="#edf6f9" stroke-width="1.09" stroke-linecap="round" stroke-linejoin="round" stroke-miterlimit="1.5"/></g></g><g transform="matrix(2.59529 0 0 2.59529 703.667-4846.43)" clip-rule="evenodd"><g transform="translate(-14.8582 429.183)" clip-rule="evenodd"><path d="M48.816,1759c-.088-.6.328-1.16.929-1.25.6-.09,1.159.33,1.247.93c1.294,8.83,6.537,15.53,11.832,22.34c5.519,7.09,11.099,14.28,12.832,23.81c1.181,6.5,1.038,13.76.534,20.31-.183,2.38-1.13,6.67-1.461,10.6-.202,2.39-.202,4.64.472,6.12.252.55.009,1.2-.543,1.45-.552.26-1.205.01-1.457-.54-.797-1.74-.903-4.39-.664-7.22.331-3.92,1.277-8.2,1.46-10.58.49-6.37.643-13.43-.505-19.74-1.666-9.17-7.098-16.05-12.403-22.86-5.529-7.11-10.922-14.15-12.273-23.37Z" clip-rule="evenodd" fill="#3b6325" fill-rule="evenodd" stroke-linecap="round" stroke-linejoin="round" stroke-miterlimit="1.5"/></g><g transform="translate(-14.8582 429.183)" clip-rule="evenodd"><path d="M71.639,1793.81c.257.55.021,1.21-.529,1.46-.549.26-1.204.03-1.462-.52-.752-1.61-.676-4.07.104-6.86c1.072-3.84,3.417-8.38,6.144-12.01c1.859-2.47,3.901-4.51,5.829-5.66c1.475-.88,2.91-1.25,4.187-1.05.599.1,1.007.66.91,1.26-.096.6-.661,1.01-1.26.91-.833-.13-1.747.19-2.709.77-1.727,1.03-3.534,2.88-5.2,5.1-2.562,3.4-4.776,7.66-5.783,11.27-.607,2.18-.816,4.09-.231,5.33Z" clip-rule="evenodd" fill="#3b6325" fill-rule="evenodd" stroke-linecap="round" stroke-linejoin="round" stroke-miterlimit="1.5"/></g><g transform="translate(-14.8582 429.183)" clip-rule="evenodd"><path d="M71.567,1798.58c-.151-.15-1.05-.99-2.032-1.57-3.654-2.14-11.005-4.61-19.403-2.83-.593.13-1.178-.25-1.303-.85-.126-.59.254-1.18.847-1.3c10.405-2.21,19.318,1.67,22.47,4.08.678.52,1.12,1.01,1.335,1.37.197.33.263.63.263.88c0,.6-.493,1.1-1.1,1.1-.531,0-.975-.38-1.077-.88Z" clip-rule="evenodd" fill="#3b6325" fill-rule="evenodd" stroke-linecap="round" stroke-linejoin="round" stroke-miterlimit="1.5"/></g><g transform="matrix(1 0.000286-.000286 1-13.0758 428.251)" clip-rule="evenodd"><path d="M75.301,1815.65c0,.6-.493,1.1-1.1,1.1s-1.099-.5-1.1-1.1c-.001-4.8,3.274-6.91,6.556-8.56c5.46-2.73,11.548-1.18,15.866,3.13.429.43.429,1.13,0,1.56s-1.126.43-1.555,0c-3.631-3.63-8.735-5.01-13.328-2.72-2.581,1.29-5.34,2.81-5.339,6.59Z" clip-rule="evenodd" fill="#3b6325" fill-rule="evenodd" stroke-linecap="round" stroke-linejoin="round" stroke-miterlimit="1.5"/></g><g transform="translate(-9.43713 430.26)" clip-rule="evenodd"><path d="M69.682,1812.44c.576.19.888.82.696,1.39-.192.58-.815.89-1.391.7-4.58-1.53-12.446-1.38-17.125,4.47-.379.47-1.072.55-1.545.17-.474-.38-.551-1.07-.172-1.55c5.344-6.67,14.307-6.92,19.537-5.18Z" clip-rule="evenodd" fill="#3b6325" fill-rule="evenodd" stroke-linecap="round" stroke-linejoin="round" stroke-miterlimit="1.5"/></g></g><g transform="matrix(1.65266 0 0 1.65266 465.363-2288.46)" clip-rule="evenodd"><path d="M196.069,2007.96h81.5c-1.179,17.19-3.04,34.31-13.731,50.32h-55.145c-8.965-15.59-13.109-32.38-12.624-50.32Z" clip-rule="evenodd" fill="#fff" fill-rule="evenodd" stroke-linecap="round" stroke-linejoin="round" stroke-miterlimit="1.5"/><path d="M277.569,2007.96c-12.593,29.69-32.588,47.74-68.853,50.32h55.562c8.555-15.4,12.673-32.28,13.291-50.32Z" clip-rule="evenodd" fill="#edf6f9" fill-rule="evenodd" stroke-linecap="round" stroke-linejoin="round" stroke-miterlimit="1.5"/></g><g transform="matrix(2.59529 0 0 2.59529 606.409-4399.88)" clip-rule="evenodd"><path id="ePmyV5wsJjp175" d="M80.697,2076.42c8.433,2.28,16.43,4.94,9.488,20.51-.787-3.18-2.96-4.98-6.585-5.32c4.469,5.08,5.86,10.43-1.548,16.55c1.047-5.73-.047-10.08-3.387-12.97c2.16,8.21,1.781,15.4-5.612,19.74.887-5.26-.08-9.42-3.58-12.1c1.043,9.93.551,19.15-16.836,20.52-5.847-12.71-.802-20.23,9.095-25.45-3.04-3.37-6.763-2.99-12.385,7.84-3.402-7.92-2.422-14.93,12.772-18.97-3.894-2.55-8.592-1.32-14.293,4.64-.978-8.59,4.821-13.24,19.325-12.81-2.613-4.42-7.321-5.38-15.869,0c7.63-12.45,20.854-16.22,29.415-2.18Z" clip-rule="evenodd" fill="#56893c" fill-rule="evenodd" stroke-linecap="round" stroke-linejoin="round" stroke-miterlimit="1.5"/></g><g transform="matrix(-.977216 2.40428-2.40428-.977216 5888.53 2713.54)" clip-rule="evenodd"><path id="ePmyV5wsJjp177" d="M80.697,2076.42c8.433,2.28,16.43,4.94,9.488,20.51-.787-3.18-2.96-4.98-6.585-5.32c4.469,5.08,5.86,10.43-1.548,16.55c1.047-5.73-.047-10.08-3.387-12.97c2.16,8.21,1.781,15.4-5.612,19.74.887-5.26-.08-9.42-3.58-12.1c1.043,9.93.551,19.15-16.836,20.52-5.847-12.71-.802-20.23,9.095-25.45-3.04-3.37-6.763-2.99-12.385,7.84-3.402-7.92-2.422-14.93,12.772-18.97-3.894-2.55-8.592-1.32-14.293,4.64-.978-8.59,4.821-13.24,19.325-12.81-2.613-4.42-7.321-5.38-15.869,0c7.63-12.45,20.854-16.22,29.415-2.18Z" clip-rule="evenodd" fill="#56893c" fill-rule="evenodd" stroke-linecap="round" stroke-linejoin="round" stroke-miterlimit="1.5"/></g><g transform="matrix(-2.38062 0.237189 0.257304 2.5825 567.064-4414.45)" clip-rule="evenodd"><path id="ePmyV5wsJjp179" d="M80.697,2076.42c8.433,2.28,16.43,4.94,9.488,20.51-.787-3.18-2.96-4.98-6.585-5.32c4.469,5.08,5.86,10.43-1.548,16.55c1.047-5.73-.047-10.08-3.387-12.97c2.16,8.21,1.781,15.4-5.612,19.74.887-5.26-.08-9.42-3.58-12.1c1.043,9.93.551,19.15-16.836,20.52-5.847-12.71-.802-20.23,9.095-25.45-3.04-3.37-6.763-2.99-12.385,7.84-3.402-7.92-2.422-14.93,12.772-18.97-3.894-2.55-8.592-1.32-14.293,4.64-.978-8.59,4.821-13.24,19.325-12.81-2.613-4.42-7.321-5.38-15.869,0c7.63-12.45,20.854-16.22,29.415-2.18Z" clip-rule="evenodd" fill="#74b969" fill-rule="evenodd" stroke-linecap="round" stroke-linejoin="round" stroke-miterlimit="1.5"/></g><g transform="matrix(.218149-2.38244-2.58448-.236648 6148.71 1602.06)" clip-rule="evenodd"><path id="ePmyV5wsJjp181" d="M80.697,2076.42c8.433,2.28,16.43,4.94,9.488,20.51-.787-3.18-2.96-4.98-6.585-5.32c4.469,5.08,5.86,10.43-1.548,16.55c1.047-5.73-.047-10.08-3.387-12.97c2.16,8.21,1.781,15.4-5.612,19.74.887-5.26-.08-9.42-3.58-12.1c1.043,9.93.551,19.15-16.836,20.52-5.847-12.71-.802-20.23,9.095-25.45-3.04-3.37-6.763-2.99-12.385,7.84-3.402-7.92-2.422-14.93,12.772-18.97-3.894-2.55-8.592-1.32-14.293,4.64-.978-8.59,4.821-13.24,19.325-12.81-2.613-4.42-7.321-5.38-15.869,0c7.63-12.45,20.854-16.22,29.415-2.18Z" clip-rule="evenodd" fill="#74b969" fill-rule="evenodd" stroke-linecap="round" stroke-linejoin="round" stroke-miterlimit="1.5"/></g><g transform="matrix(1.11931-1.89685 2.23515 1.31895-3830.83-1734.17)" clip-rule="evenodd"><path id="ePmyV5wsJjp183" d="M80.697,2076.42c8.433,2.28,16.43,4.94,9.488,20.51-.787-3.18-2.96-4.98-6.585-5.32c4.469,5.08,5.86,10.43-1.548,16.55c1.047-5.73-.047-10.08-3.387-12.97c2.16,8.21,1.781,15.4-5.612,19.74.887-5.26-.08-9.42-3.58-12.1c1.043,9.93.551,19.15-16.836,20.52-5.847-12.71-.802-20.23,9.095-25.45-3.04-3.37-6.763-2.99-12.385,7.84-3.402-7.92-2.422-14.93,12.772-18.97-3.894-2.55-8.592-1.32-14.293,4.64-.978-8.59,4.821-13.24,19.325-12.81-2.613-4.42-7.321-5.38-15.869,0c7.63-12.45,20.854-16.22,29.415-2.18Z" clip-rule="evenodd" fill="#56893c" fill-rule="evenodd" stroke-linecap="round" stroke-linejoin="round" stroke-miterlimit="1.5"/></g><g transform="translate(170.129961-911.086136)" clip-rule="evenodd"><ellipse id="ePmyV5wsJjp185" rx="23.43" ry="22.979" transform="translate(622.266762 1391.313431)" clip-rule="evenodd" fill="#ffb5a7" fill-rule="evenodd" stroke-linecap="round" stroke-linejoin="round" stroke-miterlimit="1.5"/></g><g transform="matrix(.489641 0 0 0.489641 425.418-137.11)" clip-rule="evenodd"><ellipse id="ePmyV5wsJjp187" rx="23.43" ry="22.979" transform="translate(568.458169 1457.441322)" clip-rule="evenodd" fill="#ffb5a7" fill-rule="evenodd" stroke-linecap="round" stroke-linejoin="round" stroke-miterlimit="1.5"/></g><g transform="matrix(.350111 0.342302-.342302 0.350111 1958.67 463.364)" clip-rule="evenodd"><ellipse rx="23.43" ry="22.979" transform="translate(673.891 1327.87)" clip-rule="evenodd" fill="#ffb5a7" fill-rule="evenodd" stroke-linecap="round" stroke-linejoin="round" stroke-miterlimit="1.5"/></g><g transform="matrix(.350111 0.342302-.342302 0.350111 2103.95287 250.057984)" clip-rule="evenodd"><ellipse id="ePmyV5wsJjp191" rx="23.43" ry="22.979" transform="translate(673.891 1327.87)" clip-rule="evenodd" fill="#ffb5a7" fill-rule="evenodd" stroke-linecap="round" stroke-linejoin="round" stroke-miterlimit="1.5"/></g><g transform="matrix(.350111 0.342302-.342302 0.350111 1347.09-254.485)" clip-rule="evenodd"><ellipse id="ePmyV5wsJjp193" rx="23.43" ry="22.979" transform="translate(673.891 1327.87)" clip-rule="evenodd" fill="#ffb5a7" fill-rule="evenodd" stroke-linecap="round" stroke-linejoin="round" stroke-miterlimit="1.5"/></g><g transform="matrix(.350111 0.342302-.342302 0.350111 1639.47-231.77)" clip-rule="evenodd"><ellipse id="ePmyV5wsJjp195" rx="23.43" ry="22.979" transform="translate(673.891 1327.87)" clip-rule="evenodd" fill="#ffb5a7" fill-rule="evenodd" stroke-linecap="round" stroke-linejoin="round" stroke-miterlimit="1.5"/></g><g id="ePmyV5wsJjp196" transform="matrix(.350111 0.342302-.342302 0.350111 848.456-30.0655)" clip-rule="evenodd"><ellipse rx="23.43" ry="22.979" transform="translate(673.891 1327.87)" clip-rule="evenodd" fill="#ffb5a7" fill-rule="evenodd" stroke-linecap="round" stroke-linejoin="round" stroke-miterlimit="1.5"/></g><g id="ePmyV5wsJjp198" transform="matrix(.350111 0.342302-.342302 0.350111 901.324 176.598)" clip-rule="evenodd"><ellipse rx="23.43" ry="22.979" transform="translate(673.891 1327.87)" clip-rule="evenodd" fill="#ffb5a7" fill-rule="evenodd" stroke-linecap="round" stroke-linejoin="round" stroke-miterlimit="1.5"/></g><g transform="matrix(.350111 0.342302-.342302 0.350111 1999.82287 97.196784)" clip-rule="evenodd"><ellipse id="ePmyV5wsJjp201" rx="23.43" ry="22.979" transform="translate(673.891 1327.87)" clip-rule="evenodd" fill="#ffb5a7" fill-rule="evenodd" stroke-linecap="round" stroke-linejoin="round" stroke-miterlimit="1.5"/></g><g transform="matrix(.247633 0 0 0.247633 344.315039 908.510102)" clip-rule="evenodd"><ellipse id="ePmyV5wsJjp203" rx="23.43" ry="22.979" transform="translate(673.891009 1277.87001)" clip-rule="evenodd" fill="#ffb5a7" fill-rule="evenodd" stroke-linecap="round" stroke-linejoin="round" stroke-miterlimit="1.5"/></g><g transform="matrix(.247633 0 0 0.247633 565.411 111.916)" clip-rule="evenodd"><ellipse id="ePmyV5wsJjp205" rx="23.43" ry="22.979" transform="translate(465.420251 1584.069416)" clip-rule="evenodd" fill="#ffb5a7" fill-rule="evenodd" stroke-linecap="round" stroke-linejoin="round" stroke-miterlimit="1.5"/></g><g transform="matrix(.177067 0.173117-.173117 0.177067 585.777569 548.022609)" clip-rule="evenodd"><ellipse id="ePmyV5wsJjp207" rx="23.43" ry="22.979" transform="translate(673.891 1327.87)" clip-rule="evenodd" fill="#ffb5a7" fill-rule="evenodd" stroke-linecap="round" stroke-linejoin="round" stroke-miterlimit="1.5"/></g><g transform="matrix(.715036 0.699088-.699088 0.715036 2069.124102-391.146106)" clip-rule="evenodd"><ellipse id="ePmyV5wsJjp209" rx="23.43" ry="22.979" transform="translate(1049.044369 1289.381667)" clip-rule="evenodd" fill="#ffb5a7" fill-rule="evenodd" stroke-linecap="round" stroke-linejoin="round" stroke-miterlimit="1.5"/></g><g transform="matrix(-.412123 0.264392-.264392-.412123 2314.474276 888.808659)" clip-rule="evenodd"><ellipse id="ePmyV5wsJjp211" rx="23.43" ry="22.979" transform="translate(673.891 1327.87)" clip-rule="evenodd" fill="#ffb5a7" fill-rule="evenodd" stroke-linecap="round" stroke-linejoin="round" stroke-miterlimit="1.5"/></g><g transform="matrix(-.208429 0.133715-.133715-.208429 2042.818795 805.142907)" clip-rule="evenodd"><ellipse id="ePmyV5wsJjp213" rx="23.43" ry="22.979" transform="translate(653.584916 1395.510408)" clip-rule="evenodd" fill="#ffb5a7" fill-rule="evenodd" stroke-linecap="round" stroke-linejoin="round" stroke-miterlimit="1.5"/></g><g transform="translate(-133.466261-308.505898)" clip-rule="evenodd"><ellipse id="ePmyV5wsJjp215" rx="23.43" ry="22.979" transform="translate(673.891 1427.870005)" clip-rule="evenodd" fill="#ffb5a7" fill-rule="evenodd" stroke-linecap="round" stroke-linejoin="round" stroke-miterlimit="1.5"/></g><g transform="matrix(1.22406 0 0 1.22406-272.725-1300.49)" clip-rule="evenodd"><path d="M1160.2,2130.16c.21,7.29.83,14.86-1.1,20.62-2.55,7.59-.43,14.4,8.58,13.65c5.01-.42,12.37-3.55,17.84-9.14c7.2-7.36,19.16-8.48,18.06-15.37-.89-5.58-3.63-9.33-14.43-9.76-.04,4.03.79,7.2-1.76,11.59c1.94-4.99,1.4-9.98.11-14.97l-27.3,3.38Z" clip-rule="evenodd" fill="#fcd5ce" fill-rule="evenodd" stroke-linecap="round" stroke-linejoin="round" stroke-miterlimit="1.5"/><path d="M1270.76,2098.61c-11.48,21.53-23,43.19-35.05,65.88-4.06,7.63,2.75,14.17,24.3,14.53c9.25.16,15.5-5.11,28.01-2.72c31.81,6.07,41.82-15.63,26.58-22.68-10.18-4.71-30.13-1.19-37.31-5.93c5.19-15.62,11.5-30.41,21.29-42.59" clip-rule="evenodd" fill="#fcd5ce" fill-rule="evenodd" stroke-linecap="round" stroke-linejoin="round" stroke-miterlimit="1.5"/><g transform="matrix(1.18728 0 0 1.18728 190.987-380.042)" clip-rule="evenodd"><path d="M860.909,2111.92c-1.149,4.63-3.754,13.64,2.603,16.02c1.743.66,5.847-.21,9.758,0c6.422.35,13.108,1.96,13.774.42l9.77-12.66c-2.82-1.86-6.399-2.32-11.422-.14l.587-16.08-25.07,12.44Z" clip-rule="evenodd" fill="#fcd5ce" fill-rule="evenodd" stroke-linecap="round" stroke-linejoin="round" stroke-miterlimit="1.5"/></g><g transform="matrix(.952607-.304202 0.304202 0.952607 54.0751-202.484)" clip-rule="evenodd"><path d="M568.5346,2581.565438c3.63,7.67,8.6834,14.774562,15.0774,20.134562c15.505-2.54,28.996-3.92,28.383,2.75-.322,3.5-.337,6.75-5.849,1.72c4.289,3.57,6.736,8.33,3.415,14.54-.449.84-3.202-4.18-3.132-4.59c0,0,1.011,2.81,2.757,4.82.327.37-8.616,4.13-9.621,1.89-.439-.98-3.438-.88-5.724,1.14-4.151,3.67-12.974.34-16.91-3.69-6.336-6.5-17.310532-15.88465-26.018532-26.02465c3.008-12.13,7.274132-17.809912,17.622132-12.689912Z" transform="matrix(.999848-.017452 0.017452 0.999848-45.33166 10.543389)" clip-rule="evenodd" fill="#fcd5ce" fill-rule="evenodd" stroke-linecap="round" stroke-linejoin="round" stroke-miterlimit="1.5"/></g><path d="M1360.16,2098.93c4.23,2.25,8.46,4.54,12.22,5.4c6.62-4.72,11.16-10.77,11.35-19.61l-8.99-9.88-14.58,24.09Z" clip-rule="evenodd" fill="#2b3643" fill-rule="evenodd" stroke-linecap="round" stroke-linejoin="round" stroke-miterlimit="1.5"/><path d="M1239.52,1949.84c-41.34,1.98-70.36,23.93-90.91,59.59-7.03,12.19-15.13,24.96-28.23,34.67-13.24,9.83,48.25,17.89,81.18,24.8c14.17,2.98,25.4-3.01,36.08-12.1l90.08,27.06c8.21,8.91,18.25,15.46,33.64,15.05c14.44-8.98,20.26-21.27,9.4-30.11-11.08-9.01-30.53-19.12-33.39-37.02-3.22-20.08-30.58-46.9-54.76-63.55l-43.09-18.39Z" clip-rule="evenodd" fill="#d8ecfc" fill-rule="evenodd" stroke-linecap="round" stroke-linejoin="round" stroke-miterlimit="1.5"/><path d="M1125.18,2051.25c-21.21,32.43-34.22,62.87,23.34,76.16c11.82,5.86,25.83,9.52,47.69,5.33c25.31-4.85,48.37-21.81,73.65-33.81c11.96,6.37,25.56,10.52,45.42,6.13c5.02-1.11,9.63-6.01,10.8-21.6c15.62-27.09,3.4-40.74-14.32-51.73-4.97-3.08-56.98,11.39-86.87,32.04-8.67,5.98-19.2,8.45-30.75,5.64-24.14-5.88-41.6-25.19-68.96-18.16Z" clip-rule="evenodd" fill="#2b3643" fill-rule="evenodd" stroke-linecap="round" stroke-linejoin="round" stroke-miterlimit="1.5"/><path d="M1282.44,1952.99l3.71-4.44c38.96,27.67,80.12,27.55,94.42-9.22c5.41-13.91,3.16-30.61,14.54-41.83-8.76-20.17-26.51-24.81-55.45-10.12l-64.5,18.14-12.88,2.26c6,3.37,7.24,18.98-1.95,30.78c8.56,3.45,16.78,7.3,22.11,14.43Z" clip-rule="evenodd" fill="#fcd5ce" fill-rule="evenodd" stroke-linecap="round" stroke-linejoin="round" stroke-miterlimit="1.5"/><path d="M1395.11,1897.51c49.06-31.71-11-141.38-102.09-115.35-51.34,14.67-74.1,75.37-30.27,125.9c4.1,4.72,4.67,14.72,1.47,23.83c8.98-1.05,15.39-5.42,16.57-16.57-.05,8.61.42,18.13-4.81,17.79c4.41,1.37,8.83-2.98,13.24-14-2.38,7.73-7.3,16.03,1.04,21.33-.17-6.04,2.51-9.62,8.77-10.15c30.38-1.05,53.25-17.11,70.73-43.96-3.51,7.88-6.45,16-14.5,21.98c17.44-.61,30.75-4.92,39.85-10.8Z" clip-rule="evenodd" fill="#3d6787" fill-rule="evenodd" stroke-linecap="round" stroke-linejoin="round" stroke-miterlimit="1.5"/><g transform="matrix(.406077 0.48363-.48363 0.406077 1478.68 266.043)" clip-rule="evenodd"><path d="M1885.97,1825.58c-15.8-41.95-55.13,14.1-17.46,38.25c3.33,2.12,12.4.66,14.43-4.51c1.55-3.92-.84-11.35-.18-16.91.91-7.76,4.41-13.63,3.21-16.83Z" clip-rule="evenodd" fill="#ffb5a7" fill-rule="evenodd" stroke-linecap="round" stroke-linejoin="round" stroke-miterlimit="1.5"/></g><path d="M1290.48,1975.04c-4.29-24.06-12.33-29.74-30.15-36.72-7.87-3.07-16.14,3.32-22.69,11.8c18.54,6.14,36.49,13.65,52.84,24.92Z" clip-rule="evenodd" fill="#3d6787" fill-rule="evenodd" stroke-linecap="round" stroke-linejoin="round" stroke-miterlimit="1.5"/></g><g id="ePmyV5wsJjp231" transform="matrix(1.80908 0.224534-.224534 1.80908-710-3083)" clip-rule="evenodd"><path d="M1623.34,2192.95l7.82,21.91c1.7-.54,3.33-1.15,4.72-1.94c3.66-.99,7.17-2.03,5.97-4.77l-10.98-12.18-7.53-3.02Z" clip-rule="evenodd" fill="#a1cdf1" fill-rule="evenodd" stroke-linecap="round" stroke-linejoin="round" stroke-miterlimit="1.5"/><path d="M1619.92,2187.19l4.76,28.99c1.06,4.71,6.94,1.24,9.78-2.56-5.48-5.41-8.32-12.22-10.22-19.52c7.45,15.51,14.75,29.63,19.17,18.31-4.79-5.13-9.03-10.47-13.07-15.9c5.78,7.07,12.58,17.59,14.65,11.9-8-6.15-21.04-21.56-19.78-24.07l-5.29,2.85Z" clip-rule="evenodd" fill="#d8ecfc" fill-rule="evenodd" stroke-linecap="round" stroke-linejoin="round" stroke-miterlimit="1.5"/><path d="M1615.72,2157.79c1.63,6.94,2.7,14.01,2.98,21.25l2.34-.2c-.52-8.13-2-15.91-4.17-23.45l-1.15,2.4Z" clip-rule="evenodd" fill="#d8ecfc" fill-rule="evenodd" stroke-linecap="round" stroke-linejoin="round" stroke-miterlimit="1.5"/><g transform="matrix(.97512-.332884 0.369419 1.08214-765.713 360.266)" clip-rule="evenodd"><ellipse rx="5.019" ry="4.074" transform="translate(1620.74 2183.11)" clip-rule="evenodd" fill="#a1cdf1" fill-rule="evenodd" stroke-linecap="round" stroke-linejoin="round" stroke-miterlimit="1.5"/></g><g transform="matrix(1.03211-.352339 0.369419 1.08214-858.364 391.05)" clip-rule="evenodd"><ellipse rx="5.019" ry="4.074" transform="translate(1620.74 2183.11)" clip-rule="evenodd" fill="#d8ecfc" fill-rule="evenodd" stroke-linecap="round" stroke-linejoin="round" stroke-miterlimit="1.5"/></g><path id="ePmyV5wsJjp239" d="M1529.02,2117.58l-33.78-30.17c-2.09-2.1,1.15-4.67,4.96-3.44l92.2,18.3c4.84.68,9.09,2.01,11.56,4.4l53.39,49.41c3.17,1.7,6.34,8.6,1.24,7.84l-40.73-8.67-88.84-37.67Z" clip-rule="evenodd" fill="#2b3643" fill-rule="evenodd" stroke-linecap="round" stroke-linejoin="round" stroke-miterlimit="1.5"/><path id="ePmyV5wsJjp240" d="M1520.81,2136.43l-4.23,11.45c-1.09,3.13-1.12,5.34,1.76,8.39c9.45,9.99,41.3,33.61,81.07,33.26c1.55-.01,3.51-1.64,5.56-4.56c1.41-2.03,4.01-8.5,4.85-11.71-20.72-26.68-50.96-38.04-89.01-36.83Z" clip-rule="evenodd" fill="#d8ecfc" fill-rule="evenodd" stroke-linecap="round" stroke-linejoin="round" stroke-miterlimit="1.5"/><path id="ePmyV5wsJjp241" d="M1528.11,2149.56c-8.09-.6-12.53.62-5.57,7.54c6.79,6.75,41.53,29.79,75.55,30.08c5.18.05,2.73-5.37-2.51-9.03l-67.47-28.59Z" clip-rule="evenodd" fill="#a1cdf1" fill-rule="evenodd" stroke-linecap="round" stroke-linejoin="round" stroke-miterlimit="1.5"/><path id="ePmyV5wsJjp242" d="M1529.11,2150.21c18.79,13.12,39.22,24.38,66.47,27.94-19.34-15.12-41.26-25.3-66.47-27.94Z" clip-rule="evenodd" fill="#2b3643" fill-rule="evenodd" stroke-linecap="round" stroke-linejoin="round" stroke-miterlimit="1.5"/><path id="ePmyV5wsJjp243" d="M1536.4,2103.07l-15.59,33.38c18.32-.93,70.71,14.48,88.88,37.37l12.58-30.67c-17.08-22.98-55.67-39.02-85.87-40.08" clip-rule="evenodd" fill="#3d6787" fill-rule="evenodd" stroke-linecap="round" stroke-linejoin="round" stroke-miterlimit="1.5"/></g><g transform="matrix(.290863 0.36483-.334534 0.266709 1878.62 233.071)" clip-rule="evenodd"><g transform="translate(0 5.2495)" clip-rule="evenodd"><path id="ePmyV5wsJjp246" d="M1217.29,2026.5c3.95-69.86,120.53-80.96,124.68,3.28.74,15.15-2.04,29.12-17.06,39.01-22.3,14.68-43.66,29.63-46.59,63.35" clip-rule="evenodd" fill="none" fill-rule="evenodd" stroke="#ffb5a7" stroke-width="57.38" stroke-linecap="round" stroke-linejoin="round" stroke-miterlimit="1.5"/></g><g transform="matrix(4.53494 0 0 5.40686-4490.93-9674.19)" clip-rule="evenodd"><ellipse id="ePmyV5wsJjp248" rx="7.208" ry="5.879" transform="translate(1272.48 2199.38)" clip-rule="evenodd" fill="#ffb5a7" fill-rule="evenodd" stroke-linecap="round" stroke-linejoin="round" stroke-miterlimit="1.5"/></g></g><g transform="translate(1066.986634-375.322301)"><ellipse id="ePmyV5wsJjp250" rx="23.43" ry="22.979" transform="translate(673.891 1327.87)" clip-rule="evenodd" fill="#ffb5a7" fill-rule="evenodd" stroke-linecap="round" stroke-linejoin="round" stroke-miterlimit="1.5"/></g></g></g>
<script></script>
</svg>
