<?xml version="1.0" encoding="UTF-8" standalone="no"?>
<!DOCTYPE svg PUBLIC "-//W3C//DTD SVG 1.1//EN" "http://www.w3.org/Graphics/SVG/1.1/DTD/svg11.dtd">
<svg width="100%" height="100%" viewBox="0 0 668 650" version="1.1" xmlns="http://www.w3.org/2000/svg" xmlns:xlink="http://www.w3.org/1999/xlink" xml:space="preserve"  style="fill-rule:evenodd;clip-rule:evenodd;stroke-linecap:round;stroke-linejoin:round;stroke-miterlimit:1.5;">
    <g transform="matrix(1,0,0,1,-193.61,-199.407)">
        <g transform="matrix(1,0,0,1,-2326.1,-193.021)">
            <g transform="matrix(1.7797,0,0,2.20049,-1457.92,-1396.57)">
                <ellipse cx="2422.5" cy="960.5" rx="187.5" ry="147.5" style="fill:rgb(163,203,236);"/>
            </g>
            <g transform="matrix(1.52024,0,0,1.52024,1876.36,-591.51)">
                <g transform="matrix(1.13895,0,0,1.11808,-191.231,-414.508)">
                    <g transform="matrix(1,0,0,1,-542.427,-222.624)">
                        <g transform="matrix(0.657791,0,0,0.657791,564.693,439.488)">
                            <path d="M1079.25,1487.59L1079.25,1275C1011.34,1238.75 945.805,1247.73 880.844,1267.52C880.844,1267.52 875.779,1508.97 879.188,1519.26C888.27,1546.67 1024.63,1459.95 1079.25,1487.59Z" style="fill:rgb(255,181,167);stroke:rgb(45,54,66);stroke-width:12.41px;"/>
                        </g>
                        <g transform="matrix(-0.657791,0,0,0.657791,1984.53,439.488)">
                            <path d="M1079.25,1487.59L1079.25,1275C1011.34,1238.75 945.805,1247.73 880.844,1267.52C880.844,1267.52 875.779,1508.97 879.188,1519.26C888.27,1546.67 1024.63,1459.95 1079.25,1487.59Z" style="fill:rgb(255,181,167);stroke:rgb(45,54,66);stroke-width:12.41px;"/>
                        </g>
                    </g>
                    <g transform="matrix(1,0,0,1,-542.427,-242.759)">
                        <g transform="matrix(0.657791,0,0,0.657791,564.693,439.488)">
                            <path d="M1079.25,1275C1011.34,1238.75 945.805,1247.73 880.844,1267.52L878.008,1538.39C949.053,1500.01 1010.26,1473.6 1061.17,1492.1C1067.33,1494.34 1077.32,1499.73 1079.25,1514.09" style="fill:rgb(239,247,249);stroke:rgb(45,54,66);stroke-width:12.41px;"/>
                        </g>
                        <g transform="matrix(0.106415,0,0,0.58755,1183.04,705.939)">
                            <rect x="827.58" y="990.773" width="65.804" height="215.077" style="fill:rgb(220,248,255);stroke:rgb(239,247,249);stroke-width:19.5px;"/>
                        </g>
                        <g transform="matrix(-0.657791,0,0,0.657791,1984.53,439.488)">
                            <path d="M1079.25,1297.9L1079.25,1275C1011.34,1238.75 945.805,1247.73 880.844,1267.52L878.008,1538.39C942.761,1503.41 999.545,1475.13 1047.43,1487.79C1058.43,1490.7 1070.82,1497.19 1079.25,1508.62L1079.25,1454.74" style="fill:rgb(239,247,249);stroke:rgb(45,54,66);stroke-width:12.41px;"/>
                        </g>
                        <g>
                            <g transform="matrix(0.688679,0.148447,-0.170961,0.823011,920.486,107.168)">
                                <path d="M880.261,1451.8C860.49,1453.81 828.201,1464.7 807.583,1473.37C802.281,1475.6 842.676,1497.31 872.269,1503.33C881.609,1505.24 914.31,1507.7 936.135,1507.47C949.723,1507.33 977.677,1538.25 996.258,1557.07L1021.14,1497.93C1010.57,1486.51 1001.1,1475.22 995.354,1464.4C991.21,1456.61 981.935,1447.99 972.968,1443.6C945.656,1430.24 909.971,1427.06 876.345,1415.42C868.218,1412.61 867.345,1446.59 922.971,1453.57C886.183,1452.86 914.273,1465.4 880.261,1451.8Z" style="fill:rgb(239,247,249);stroke:rgb(45,54,66);stroke-width:10.54px;"/>
                            </g>
                            <g transform="matrix(0.485402,-0.109773,0.104574,0.479837,309.26,1022.3)">
                                <path d="M1797.17,1527.82C1757.87,1493.09 1755.66,1468.55 1784.47,1462.27C1795.16,1459.94 1802.24,1455.31 1814.15,1440.79C1842.93,1405.66 1919.53,1379.52 1921.34,1444.18C1921.73,1458.07 1920.97,1477.16 1916.82,1490.25C1878.24,1509.28 1838.02,1520.1 1797.17,1527.82Z" style="fill:rgb(255,181,167);stroke:rgb(45,54,66);stroke-width:16.5px;"/>
                            </g>
                        </g>
                    </g>
                </g>
                <g transform="matrix(0.657789,0,0,0.657789,-510.47,52.0475)">
                    <g transform="matrix(1,0,0,1,-0.0011472,0.000239161)">
                        <path d="M1819.91,1129.61L1819.91,1210.63L1857.01,1210.63" style="fill:none;stroke:rgb(45,54,66);stroke-width:14px;"/>
                    </g>
                    <g transform="matrix(1,0,0,1,83.91,0.000239161)">
                        <path d="M1819.91,1129.61L1819.91,1210.63L1857.01,1210.63" style="fill:none;stroke:rgb(45,54,66);stroke-width:14px;"/>
                    </g>
                    <g transform="matrix(1,0,0,1,-0.0011472,0.000239161)">
                        <path d="M1715.14,1153.3L1689.98,1195.84L1761.69,1195.84L1761.77,1210.63L1761.31,1129.61" style="fill:none;stroke:rgb(45,54,66);stroke-width:14px;"/>
                    </g>
                    <g transform="matrix(1,0,0,1,-0.00140912,0.000822966)">
                        <path d="M1565.24,1210.63L1605.87,1136.12L1645.61,1210.63L1632.65,1186.33L1578.47,1186.36" style="fill:none;stroke:rgb(45,54,66);stroke-width:14px;"/>
                    </g>
                </g>
            </g>
        </g>
    </g>
</svg>
